<svg width="153" height="159" viewBox="0 0 153 159" fill="none" xmlns="http://www.w3.org/2000/svg">
<g clip-path="url(#clip0_42_205)">
<path d="M153 82.5082C153.017 93.1633 150.797 103.703 146.483 113.446C146.302 113.855 146.119 114.261 145.93 114.665C145.903 114.728 145.873 114.791 145.844 114.854C145.772 115.009 145.699 115.165 145.625 115.32C145.571 115.432 145.518 115.543 145.462 115.655C145.331 115.93 145.197 116.203 145.062 116.476C144.913 116.775 144.762 117.074 144.61 117.372C144.457 117.67 144.303 117.967 144.146 118.263C144.009 118.52 143.871 118.777 143.732 119.034C143.553 119.364 143.37 119.694 143.185 120.024C143.024 120.306 142.863 120.586 142.702 120.865C142.528 121.162 142.353 121.46 142.175 121.757L142.158 121.786C142.12 121.851 142.082 121.916 142.042 121.981C142.006 122.04 141.971 122.097 141.935 122.156C141.899 122.215 141.864 122.273 141.828 122.33V122.332C141.712 122.522 141.595 122.709 141.479 122.898L141.477 122.9C141.216 123.32 140.949 123.738 140.68 124.151C140.18 124.922 139.667 125.681 139.14 126.429C139.14 126.431 139.138 126.431 139.136 126.433C138.822 126.883 138.499 127.329 138.175 127.772C137.967 128.054 137.757 128.335 137.545 128.615C137.334 128.895 137.12 129.173 136.904 129.449C136.857 129.512 136.807 129.574 136.757 129.637C136.483 129.988 136.204 130.339 135.922 130.685C135.861 130.761 135.8 130.835 135.741 130.91C135.647 131.022 135.556 131.135 135.464 131.245C135.434 131.284 135.403 131.32 135.371 131.358C135.214 131.545 135.058 131.732 134.897 131.919V131.921C134.743 132.104 134.586 132.287 134.428 132.47C134.394 132.51 134.359 132.55 134.323 132.59C134.272 132.651 134.218 132.71 134.165 132.772C134.033 132.926 133.898 133.079 133.76 133.231C133.759 133.233 133.759 133.235 133.757 133.237L133.751 133.243V133.245C129.65 137.871 125.004 141.984 119.914 145.495C119.897 145.508 119.879 145.52 119.861 145.531C119.798 145.577 119.735 145.619 119.672 145.663C119.216 145.975 118.756 146.284 118.293 146.586C118.066 146.735 117.839 146.881 117.61 147.027V147.028C117.608 147.028 117.608 147.028 117.606 147.03H117.602L117.598 147.034L117.587 147.04C117.581 147.044 117.577 147.046 117.571 147.049C117.396 147.162 117.222 147.273 117.045 147.383C116.992 147.419 116.938 147.452 116.885 147.484C116.791 147.543 116.696 147.603 116.6 147.662C116.507 147.719 116.412 147.778 116.316 147.835C116.196 147.908 116.076 147.982 115.956 148.053C115.694 148.211 115.432 148.367 115.17 148.522C115.074 148.579 114.977 148.635 114.88 148.692C114.784 148.747 114.687 148.802 114.59 148.858C114.588 148.86 114.587 148.861 114.585 148.863C114.583 148.864 114.581 148.865 114.578 148.865L114.574 148.867L114.571 148.871H114.569C114.302 149.024 114.036 149.176 113.767 149.325L113.766 149.327C113.55 149.447 113.334 149.565 113.117 149.684C112.602 149.964 112.084 150.239 111.562 150.51C111.2 150.698 110.835 150.882 110.469 151.063C110.248 151.173 110.024 151.282 109.801 151.391C109.616 151.481 109.429 151.57 109.244 151.658C109.193 151.683 109.143 151.708 109.092 151.73C109.008 151.771 108.922 151.811 108.838 151.849C108.767 151.881 108.699 151.914 108.628 151.946C108.46 152.026 108.29 152.102 108.122 152.179C107.934 152.265 107.747 152.348 107.558 152.432C106.848 152.749 106.131 153.054 105.412 153.348C102.842 154.4 100.216 155.308 97.546 156.068C97.422 156.104 97.2961 156.141 97.1702 156.175C96.0275 156.495 94.8765 156.789 93.7172 157.054C91.6931 157.52 89.6505 157.902 87.5896 158.201C87.5857 158.201 87.58 158.203 87.5762 158.203C87.3301 158.239 87.0821 158.273 86.836 158.308C86.815 158.311 86.7921 158.315 86.7693 158.317C86.7673 158.319 86.7654 158.319 86.7616 158.317H86.7597C86.4869 158.353 86.2141 158.39 85.9394 158.424C85.9203 158.428 85.9012 158.43 85.8822 158.432C85.6265 158.462 85.369 158.493 85.1115 158.521C84.8348 158.552 84.5582 158.58 84.2797 158.609H84.2778C83.8543 158.651 83.4307 158.691 83.0072 158.725C82.9996 158.725 82.992 158.727 82.9843 158.727C82.8164 158.743 82.6486 158.754 82.4807 158.767H82.4788C80.5043 158.924 78.5113 159.001 76.5 159C74.3156 159 72.1535 158.909 70.0137 158.727C70.0061 158.727 69.9984 158.725 69.9908 158.725C69.5348 158.687 69.0795 158.645 68.6249 158.599C68.5047 158.588 68.3864 158.575 68.2662 158.563C68.2433 158.561 68.2204 158.559 68.1975 158.556C68.1613 158.552 68.125 158.548 68.0869 158.544C68.0678 158.542 68.0468 158.54 68.0278 158.537C67.8694 158.519 67.711 158.502 67.5508 158.483C67.3734 158.462 67.1941 158.441 67.0167 158.418C66.8392 158.397 66.6599 158.374 66.4825 158.35C66.4443 158.346 66.4043 158.342 66.3661 158.334C66.2364 158.319 66.1067 158.302 65.9789 158.283C65.9159 158.275 65.8549 158.266 65.7938 158.256C65.6698 158.239 65.5477 158.222 65.4237 158.203C65.4199 158.203 65.4142 158.201 65.4104 158.201C61.5147 157.638 57.669 156.771 53.9087 155.608H53.9068C53.7026 155.546 53.4985 155.481 53.2944 155.416C53.2333 155.399 53.1723 155.38 53.1112 155.359C52.5809 155.189 52.0537 155.013 51.5297 154.832C50.8067 154.584 50.0888 154.325 49.3759 154.054C49.1813 153.979 48.9886 153.905 48.794 153.831C48.4068 153.678 48.0214 153.525 47.6379 153.369C46.9836 153.102 46.3337 152.827 45.6882 152.543H45.6863V152.541C45.177 152.316 44.6695 152.087 44.1659 151.849C44.0743 151.807 43.9827 151.765 43.8912 151.721C43.8736 151.716 43.8569 151.708 43.8416 151.698C43.8397 151.698 43.8397 151.696 43.8378 151.696C43.7061 151.635 43.5745 151.572 43.4428 151.509L43.439 151.507C42.7656 151.185 42.0979 150.852 41.4359 150.51C40.6156 150.086 39.8023 149.647 38.9959 149.193C38.3282 148.818 37.6669 148.432 37.0119 148.036C36.2354 147.566 35.4673 147.083 34.7074 146.586C34.4708 146.431 34.2342 146.275 33.9977 146.117C33.784 145.974 33.5723 145.83 33.3605 145.685C32.6127 145.174 31.8744 144.65 31.1456 144.112C30.3921 143.557 29.6493 142.988 28.9174 142.405C27.9635 141.645 27.0288 140.865 26.113 140.062C24.4056 138.57 22.7681 137.004 21.2006 135.362C21.151 135.31 21.1014 135.259 21.0518 135.206C20.8954 135.042 20.7409 134.877 20.5864 134.712C20.3612 134.471 20.138 134.227 19.9167 133.983C19.5505 133.584 19.1905 133.181 18.837 132.773H18.8351V132.772C18.6195 132.525 18.4096 132.281 18.196 132.033V132.031C18.1654 131.997 18.1368 131.963 18.1082 131.928C17.9727 131.77 17.8411 131.614 17.7095 131.453V131.452C17.5302 131.24 17.3547 131.028 17.183 130.814C17.1448 130.769 17.1086 130.725 17.0723 130.679H17.0704V130.677C16.9292 130.505 16.79 130.332 16.6526 130.158C16.582 130.072 16.5134 129.985 16.4447 129.897H16.4428V129.895C16.0269 129.37 15.6193 128.841 15.2199 128.306V128.304C15.1093 128.157 15.0005 128.01 14.8937 127.862H14.8918C14.3805 127.171 13.8826 126.472 13.398 125.765V125.763C13.2149 125.498 13.0337 125.231 12.8543 124.962C12.675 124.693 12.4976 124.424 12.3221 124.153H12.3202C12.1389 123.875 11.9596 123.595 11.7822 123.314C11.7726 123.299 11.7631 123.285 11.7555 123.272C11.58 122.995 11.407 122.717 11.2366 122.437C11.0992 122.213 10.9638 121.992 10.8321 121.769C10.7406 121.618 10.6509 121.469 10.5631 121.317C10.5307 121.265 10.5021 121.214 10.4735 121.164C10.2713 120.819 10.0729 120.474 9.87446 120.127C9.64362 119.718 9.4147 119.306 9.19148 118.894C9.09991 118.725 9.00834 118.553 8.91869 118.381C8.88627 118.326 8.85762 118.271 8.82902 118.213C8.72218 118.011 8.61536 117.809 8.51042 117.605C8.40551 117.403 8.30057 117.198 8.19756 116.994C8.09454 116.79 7.99152 116.586 7.89041 116.38C7.8141 116.226 7.73781 116.069 7.66338 115.915C7.65567 115.902 7.64867 115.888 7.64242 115.875C7.60807 115.802 7.57181 115.732 7.5394 115.659C7.53178 115.648 7.52597 115.636 7.52222 115.623C7.44402 115.463 7.3677 115.304 7.29329 115.144C7.19409 114.938 7.0987 114.73 7.00332 114.522C6.93464 114.377 6.86978 114.23 6.80302 114.083C6.70763 113.877 6.61415 113.67 6.52256 113.46C6.42527 113.244 6.33179 113.027 6.23831 112.809C6.21353 112.754 6.19062 112.701 6.16775 112.645C6.12385 112.546 6.08189 112.447 6.03993 112.348C5.92738 112.084 5.81673 111.817 5.70797 111.552C5.58398 111.253 5.46317 110.953 5.34552 110.652C5.23294 110.371 5.12357 110.09 5.01739 109.809L4.97732 109.706V109.704C3.3197 105.348 2.0655 100.849 1.23052 96.2634V96.2615C0.754421 93.6435 0.415652 91.0024 0.215608 88.349C0.204173 88.2041 0.194625 88.0591 0.185086 87.9141C0.0591928 86.1191 -0.00249066 84.3171 3.64466e-05 82.5082C3.64466e-05 81.7051 0.0127541 80.9058 0.0381904 80.1104C0.53284 63.4804 6.46161 47.4701 16.9178 34.5281C17.3776 33.9578 17.8456 33.3945 18.3219 32.8381C18.8446 32.2277 19.3762 31.6255 19.9167 31.0316C20.2907 30.6196 20.669 30.2127 21.0518 29.8108C21.059 29.8027 21.0666 29.7951 21.0747 29.7879C21.1148 29.7441 21.1568 29.7002 21.2006 29.6563C23.5356 27.2112 26.0307 24.9241 28.6694 22.8102C28.9708 22.566 29.2722 22.3276 29.5775 22.0929C29.8484 21.8812 30.1193 21.6714 30.3921 21.4673C30.7087 21.2269 31.0273 20.9898 31.3479 20.7558C33.0171 19.5331 34.736 18.3784 36.5044 17.2917C37.2427 16.8378 37.9893 16.3965 38.7441 15.9679C39.0188 15.8096 39.2973 15.655 39.5759 15.5005C39.9536 15.2926 40.3313 15.0866 40.7129 14.8863C52.0509 8.89744 64.711 5.85 77.5327 6.0233C90.3543 6.1966 102.927 9.5851 114.099 15.8782C114.153 15.9068 114.206 15.9374 114.258 15.9679C114.586 16.1548 114.912 16.3418 115.236 16.5344C115.66 16.7824 116.08 17.0349 116.497 17.2917C118.604 18.5869 120.641 19.9788 122.61 21.4673C122.915 21.6981 123.22 21.9308 123.522 22.1674C123.794 22.3791 124.065 22.5947 124.334 22.8102C124.481 22.9285 124.63 23.0486 124.777 23.1688C127.998 25.7914 131.001 28.671 133.757 31.7794L133.76 31.7832C133.802 31.8309 133.844 31.8767 133.884 31.9244C134.016 32.0731 134.148 32.2239 134.277 32.3726C134.295 32.3917 134.312 32.4127 134.329 32.4318C134.52 32.6511 134.709 32.8724 134.897 33.0956C137.191 35.8029 139.294 38.6659 141.191 41.6642C141.897 42.7744 142.572 43.9049 143.217 45.0558C149.651 56.4885 153.021 69.3897 153 82.5082V82.5082Z" fill="#3F3D56"/>
<path d="M130.319 4.70824L134.897 128.638V128.64C134.743 128.854 134.586 129.067 134.428 129.28C134.342 129.398 134.254 129.513 134.165 129.631C134.033 129.811 133.898 129.989 133.76 130.167C133.758 130.169 133.758 130.171 133.757 130.173L133.751 130.18V130.182C129.735 135.482 125.089 140.273 119.914 144.449V144.498L119.861 144.491C119.798 144.545 119.735 144.594 119.672 144.645C119.216 145.009 118.756 145.369 118.292 145.72C118.065 145.893 117.838 146.064 117.609 146.233V146.235C117.608 146.235 117.608 146.235 117.606 146.238H117.602L117.598 146.242L117.587 146.249C117.581 146.253 117.577 146.255 117.571 146.26C117.396 146.391 117.222 146.52 117.045 146.649C116.991 146.691 116.938 146.729 116.885 146.766C116.791 146.835 116.696 146.904 116.6 146.973C116.507 147.04 116.411 147.109 116.316 147.175C115.936 147.446 115.553 147.713 115.169 147.975C115.074 148.042 114.977 148.106 114.88 148.173C114.784 148.237 114.687 148.302 114.59 148.366V148.373L114.578 148.375L114.574 148.377L114.57 148.381H114.569C114.301 148.559 114.036 148.737 113.767 148.91L113.765 148.912C113.55 149.052 113.334 149.19 113.117 149.328C112.602 149.654 112.083 149.977 111.562 150.29C111.2 150.51 110.835 150.723 110.469 150.934C110.248 151.063 110.024 151.19 109.801 151.316C109.616 151.421 109.429 151.525 109.244 151.627C109.193 151.656 109.143 151.685 109.091 151.712C109.008 151.758 108.922 151.805 108.838 151.849H44.1657C44.0742 151.801 43.9826 151.752 43.891 151.701C43.8732 151.694 43.8564 151.685 43.8414 151.674C43.8395 151.674 43.8395 151.672 43.8376 151.672C43.706 151.601 43.5743 151.527 43.4427 151.454L43.4389 151.452C42.7655 151.076 42.0978 150.689 41.4358 150.29C39.9344 149.388 38.4597 148.427 37.0117 147.408C36.2353 146.862 35.4671 146.299 34.7072 145.72C34.4707 145.54 34.2341 145.358 33.9975 145.173C33.7839 145.007 33.5721 144.84 33.3604 144.671C32.6125 144.076 31.8742 143.465 31.1455 142.839C30.3919 142.192 29.6492 141.529 28.9173 140.85C27.9634 139.966 27.0286 139.057 26.1129 138.122C24.4055 136.385 22.768 134.56 21.2005 132.648C21.1509 132.588 21.1013 132.528 21.0517 132.466C20.6682 131.997 20.2899 131.522 19.9166 131.042L23.732 4.70823C23.7285 3.94098 23.8689 3.17988 24.146 2.46439C24.726 0.998167 25.8573 0.000671387 27.1564 0.000671387H126.894C128.211 0.000671387 129.353 1.02263 129.926 2.51994C129.945 2.56887 129.962 2.61773 129.979 2.6666C130.207 3.32315 130.321 4.01342 130.319 4.70824V4.70824Z" fill="#3F3D56"/>
<path d="M36.3631 14.3211C39.2079 14.3211 41.514 11.6356 41.514 8.32279C41.514 5.01 39.2079 2.32446 36.3631 2.32446C33.5184 2.32446 31.2122 5.01 31.2122 8.32279C31.2122 11.6356 33.5184 14.3211 36.3631 14.3211Z" fill="white"/>
<path d="M90.9234 24.3988C82.2395 26.6827 72.6177 28.0721 62.8343 28.4525C61.4005 28.5306 59.9632 28.5208 58.5306 28.4232C55.3824 28.1585 52.6856 27.1691 49.6823 26.6284C48.2385 26.3692 46.6302 26.1797 45.1766 25.8996C45.5125 25.4829 45.8544 25.0714 46.2024 24.6649C49.3367 24.9297 52.5198 25.7965 55.6918 26.1992C61.0838 26.8848 67.1253 26.1198 71.2129 24.233C73.1961 23.3174 74.7152 22.1747 76.6914 21.255C76.9602 21.1171 77.2513 21.0279 77.5513 20.9917C78.177 20.9345 78.7261 21.1868 79.1735 21.4125C82.489 23.0861 87.3027 24.4462 91.7707 23.6978C92.1038 23.9584 91.4711 24.2553 90.9234 24.3988Z" fill="white"/>
<path d="M89.2423 45.305C89.2982 45.2948 89.3542 45.2868 89.4101 45.2772C89.1751 45.1316 88.9539 44.9649 88.7491 44.7792L89.2423 45.305Z" fill="white"/>
<path d="M125.855 49.8249C123.301 50.029 120.733 50.1809 118.152 50.2808C116.189 50.3867 114.222 50.3733 112.261 50.2407C107.951 49.8764 104.26 48.5239 100.149 47.7838C96.381 47.1066 91.8024 46.7804 89.4102 45.2773C95.5931 44.2072 101.999 46.3856 108.375 47.1963C113.532 47.8304 118.76 47.5723 123.829 46.4333C124.535 47.5435 125.211 48.674 125.855 49.8249Z" fill="white"/>
<path d="M72.6464 95.7311V93.9038C72.646 93.2057 72.3788 92.5341 71.8995 92.0265C71.4202 91.5188 70.765 91.2136 70.0679 91.1732V84.0372H69.4612V91.1651H66.7311V95.7148H53.839V148.036H82.3534V105.989C82.3533 103.362 81.3472 100.836 79.5418 98.9279C77.7365 97.0202 75.269 95.8762 72.6464 95.7311Z" fill="#2F2E41"/>
<path d="M62.3326 103.146H58.5408V106.179H62.3326V103.146Z" fill="white"/>
<path d="M68.5512 103.146H64.7594V106.179H68.5512V103.146Z" fill="white"/>
<path d="M74.7697 103.146H70.9779V106.179H74.7697V103.146Z" fill="white"/>
<path d="M62.3326 110.88H58.5408V113.913H62.3326V110.88Z" fill="white"/>
<path d="M68.5512 110.88H64.7594V113.913H68.5512V110.88Z" fill="white"/>
<path d="M74.7697 110.88H70.9779V113.913H74.7697V110.88Z" fill="white"/>
<path d="M62.3326 118.615H58.5408V121.648H62.3326V118.615Z" fill="white"/>
<path d="M68.5512 118.615H64.7594V121.648H68.5512V118.615Z" fill="white"/>
<path d="M74.7697 118.615H70.9779V121.648H74.7697V118.615Z" fill="white"/>
<path d="M62.3326 126.349H58.5408V129.382H62.3326V126.349Z" fill="white"/>
<path d="M68.5512 126.349H64.7594V129.382H68.5512V126.349Z" fill="white"/>
<path d="M74.7697 126.349H70.9779V129.382H74.7697V126.349Z" fill="white"/>
<path d="M62.3326 134.084H58.5408V137.117H62.3326V134.084Z" fill="white"/>
<path d="M68.5512 134.084H64.7594V137.117H68.5512V134.084Z" fill="white"/>
<path d="M74.7697 134.084H70.9779V137.117H74.7697V134.084Z" fill="white"/>
<path d="M62.3326 141.818H58.5408V144.851H62.3326V141.818Z" fill="white"/>
<path d="M68.5512 141.818H64.7594V144.851H68.5512V141.818Z" fill="white"/>
<path d="M74.7697 141.818H70.9779V144.851H74.7697V141.818Z" fill="white"/>
<path d="M54.626 80.5091V148.036H37.0119C36.2354 147.566 35.4673 147.083 34.7073 146.586C34.4708 146.431 34.2342 146.275 33.9977 146.117C33.784 145.974 33.5722 145.83 33.3605 145.685C32.6127 145.174 31.8744 144.65 31.1456 144.112C30.3921 143.557 29.6493 142.988 28.9174 142.404C27.9635 141.645 27.0287 140.864 26.113 140.062V70.2351H31.1933V62.1224H36.3499V54.3874H36.9565V62.1224H40.7396C41.4661 62.1225 42.1629 62.4111 42.6766 62.9248C43.1904 63.4384 43.479 64.1351 43.4791 64.8616V70.2351H44.3509C46.5663 70.2352 48.7224 70.9509 50.4979 72.2757C52.2735 73.6004 53.5735 75.4633 54.2043 77.5867C54.3142 77.9605 54.4033 78.34 54.4714 78.7236C54.5743 79.3132 54.626 79.9106 54.626 80.5091V80.5091Z" fill="#2F2E41"/>
<path d="M46.5121 76.3785H34.2267V77.2885H46.5121V76.3785Z" fill="white"/>
<path d="M46.5121 81.9899H34.2267V82.8998H46.5121V81.9899Z" fill="white"/>
<path d="M46.5121 87.6011H34.2267V88.5111H46.5121V87.6011Z" fill="white"/>
<path d="M46.5121 93.2124H34.2267V94.1223H46.5121V93.2124Z" fill="white"/>
<path d="M46.5121 98.8237H34.2267V99.7337H46.5121V98.8237Z" fill="white"/>
<path d="M46.5121 104.435H34.2267V105.345H46.5121V104.435Z" fill="white"/>
<path d="M46.5121 110.046H34.2267V110.956H46.5121V110.046Z" fill="white"/>
<path d="M46.5121 115.658H34.2267V116.568H46.5121V115.658Z" fill="white"/>
<path d="M46.5121 121.269H34.2267V122.179H46.5121V121.269Z" fill="white"/>
<path d="M46.5121 126.88H34.2267V127.79H46.5121V126.88Z" fill="white"/>
<path d="M46.5121 132.491H34.2267V133.401H46.5121V132.491Z" fill="white"/>
<path d="M46.5121 138.103H34.2267V139.013H46.5121V138.103Z" fill="white"/>
<path d="M39.2318 63.7911H35.44V66.8242H39.2318V63.7911Z" fill="white"/>
<path d="M129.979 2.66672C129.962 2.61708 129.945 2.56939 129.926 2.51984C129.354 1.02242 128.211 0 126.895 0H27.1566C25.8574 0 24.7261 0.997637 24.1462 2.46451C23.8692 3.17982 23.7288 3.94071 23.7322 4.70776L19.9168 133.983C20.1381 134.227 20.3613 134.471 20.5864 134.711C20.7409 134.877 20.8954 135.041 21.0518 135.205L24.8673 4.70777C24.8663 4.33795 24.9151 3.96968 25.0123 3.61285C25.0126 3.60695 25.0139 3.60115 25.0161 3.59566C25.3442 2.40918 26.1798 1.56416 27.1566 1.56416H126.895C127.128 1.56448 127.36 1.61319 127.574 1.70723C128.467 2.08873 129.125 3.19893 129.178 4.53224C129.18 4.59139 129.182 4.64862 129.182 4.70777L133.76 130.166C133.898 129.988 134.033 129.811 134.165 129.632C134.215 129.567 134.262 129.502 134.31 129.439C134.35 129.386 134.39 129.334 134.428 129.281C134.587 129.067 134.743 128.853 134.897 128.64V128.638L130.319 4.70778C130.322 4.01315 130.207 3.32308 129.979 2.66672V2.66672ZM41.4359 150.51C42.0979 150.853 42.7656 151.185 43.439 151.507L43.4429 151.509C43.5745 151.572 43.7061 151.635 43.8378 151.696C43.8397 151.696 43.8397 151.698 43.8416 151.698C43.8569 151.708 43.8736 151.716 43.8912 151.721C43.9828 151.765 44.0743 151.807 44.1659 151.849H108.838C108.922 151.811 109.008 151.77 109.092 151.73C109.143 151.708 109.193 151.683 109.244 151.658C109.429 151.57 109.616 151.481 109.801 151.391C110.025 151.282 110.248 151.173 110.469 151.063C110.835 150.882 111.2 150.698 111.562 150.51H41.4359Z" fill="#2F2E41"/>
<path d="M129.75 15.9673H24.2997V17.2912H129.75V15.9673Z" fill="#2F2E41"/>
<path d="M131.202 32.3721H23.2247V33.696H131.202V32.3721Z" fill="#2F2E41"/>
<path d="M40.7127 58.0613H39.5758L43.3913 0.59436H44.5281L40.7127 58.0613Z" fill="#2F2E41"/>
<path d="M115.237 58.4428H114.1L109.521 0.59436H110.658L115.237 58.4428Z" fill="#2F2E41"/>
<path d="M131.775 56.5117H23.4155V60.3007H131.775V56.5117Z" fill="#2F2E41"/>
<path d="M77.7904 54.4212H78.9272C79.2009 54.4212 79.472 54.4751 79.7248 54.5798C79.9777 54.6846 80.2074 54.8381 80.401 55.0316C80.5945 55.2251 80.748 55.4548 80.8528 55.7077C80.9575 55.9605 81.0114 56.2315 81.0114 56.5051V56.5051H75.7063C75.7063 55.9525 75.9258 55.4224 76.3167 55.0316C76.7076 54.6408 77.2377 54.4212 77.7904 54.4212V54.4212Z" fill="#2F2E41"/>
<path d="M39.2497 145.998C37.5327 147.715 37.6662 148.43 37.0119 148.036C36.2354 147.566 35.4673 147.083 34.7073 146.586C34.4708 146.431 34.2342 146.275 33.9977 146.117C33.784 145.974 33.5722 145.83 33.3605 145.685C32.6126 145.174 31.8744 144.65 31.1456 144.112C30.3921 143.557 29.6493 142.988 28.9174 142.405C27.9635 141.645 27.0287 140.864 26.113 140.062C24.4056 138.57 22.7681 137.004 21.2006 135.362C21.151 135.31 21.1014 135.259 21.0518 135.206C20.8954 135.041 20.7409 134.877 20.5863 134.711L21.3628 131.907L22.3167 91.0386L22.3739 78.7236L22.3777 77.5867L23.2247 59.7781L23.2305 58.6412L23.7226 34.6311L23.7265 33.6964L23.7341 32.3726L21.0747 29.7879L24.9474 17.2917L24.9531 15.9679L25.0123 3.61286L25.0161 2.60377C27.0364 0.764892 29.896 0.404394 33.3929 0.728661C33.5665 0.745844 33.7439 0.763028 33.9213 0.782071L33.969 1.56417L34.0568 2.95854V2.9605L34.7436 14.0165V14.0203L34.8657 15.9679L34.9477 17.2917L35.1633 20.7558L32.0689 32.3727L32.151 33.6965L32.7481 43.2951L32.8301 44.619L32.9999 47.3506L33.7019 58.6412L33.7725 59.7781L33.9175 62.1224L34.0988 65.0219L34.1197 65.3595L34.2018 66.6833L34.4383 70.487L34.5032 71.5475L34.8027 76.3793L34.8428 77.024L34.86 77.2892L34.8791 77.5867L34.9096 78.0827L34.9496 78.7237L35.0927 81.0241L35.1519 81.9893L35.2091 82.8992L35.2491 83.5573L35.3159 84.6179L35.3674 85.4382L35.501 87.6013L35.5582 88.5112L35.6555 90.0925L35.7146 91.0386L35.7223 91.1531L35.8501 93.2132L35.9073 94.1231L35.9493 94.827L36.0618 96.6296L36.1286 97.6883L36.1992 98.8233L36.2545 99.7332L36.4682 103.163L36.533 104.223L36.5464 104.435L36.6036 105.345L36.8745 109.698L36.8955 110.047L36.9394 110.759L36.9508 110.957L37.2446 115.657L37.2809 116.233L37.3019 116.567L37.3457 117.294L37.5937 121.269L37.651 122.179L37.6872 122.768L37.7521 123.829L37.941 126.881L37.9982 127.791L38.0916 129.306L38.1584 130.364L38.2901 132.491L38.3473 133.401L38.498 135.839L38.5648 136.897L38.6067 138.103L38.6392 139.013L39.2497 145.998Z" fill="#CCCCCC"/>
<path d="M134.323 132.59C134.272 132.651 134.218 132.71 134.165 132.771C134.033 132.926 133.898 133.079 133.76 133.231C133.759 133.233 133.759 133.235 133.757 133.237L133.751 133.243V133.245C129.65 137.871 125.004 141.984 119.914 145.495C119.897 145.508 119.879 145.52 119.861 145.531C119.798 145.577 119.735 145.619 119.672 145.663C119.216 145.975 118.756 146.284 118.293 146.586C118.066 146.735 117.839 146.881 117.61 147.026V147.028C117.608 147.028 117.608 147.028 117.606 147.03H117.602L117.598 147.034L117.587 147.04C117.581 147.044 117.577 147.046 117.571 147.049C117.396 147.162 117.222 147.272 117.045 147.383C116.992 147.419 116.938 147.452 116.885 147.484C116.791 147.543 116.696 147.602 116.6 147.662C116.507 147.719 116.412 147.778 116.316 147.835C116.196 147.908 116.076 147.982 115.956 148.053L115.963 147.423L115.975 146.586L116.03 142.736L116.221 139.661L117.352 121.462L117.531 118.581L117.571 117.933L118.081 109.744L118.254 106.932L118.649 100.599L118.827 97.7188L119 94.9357L119.008 94.827L119.023 94.5675L119.033 94.4092V94.4073L119.235 91.176L119.243 91.0386L119.386 88.7534V88.7496L119.59 85.4381L119.72 83.3589L119.865 81.0241L119.981 79.1528L120.008 78.7236L120.078 77.5867L120.082 77.541L120.521 70.464L120.635 68.6195V68.6175L120.755 66.6833L120.838 65.3595L121.007 62.6546L121.187 59.778L121.257 58.6412L121.507 54.6048V54.6029L121.646 52.3558L121.786 50.105L121.992 46.8126L122.127 44.6189L122.209 43.2951L122.804 33.6964L122.831 33.2806L122.888 32.3726L123.081 29.2672L118.943 22.1673L119.246 17.2917L119.328 15.9679L120.198 1.98188L120.225 1.56414L120.273 0.782039C124.008 0.371938 127.055 0.673296 129.178 2.60373L129.237 15.9679L129.243 17.2917L130.451 31.9243L130.452 32.3726L130.458 33.6964L130.948 58.6412L130.954 59.7781L131.794 77.5867L131.799 78.7236L132.234 91.0386L132.251 94.827L134.31 129.439L134.323 132.59Z" fill="#CCCCCC"/>
<path d="M118.293 146.586C118.066 146.735 117.839 146.881 117.61 147.026V147.028C117.608 147.028 117.608 147.028 117.606 147.03H117.602L117.598 147.034L117.587 147.04C117.581 147.044 117.577 147.045 117.571 147.049C117.396 147.162 117.222 147.272 117.045 147.383C116.992 147.419 116.938 147.452 116.885 147.484C116.791 147.543 116.696 147.602 116.6 147.662C116.507 147.719 116.412 147.778 116.316 147.835C116.196 147.908 116.076 147.982 115.956 148.053C115.694 148.211 115.432 148.367 115.17 148.522C115.074 148.579 114.977 148.634 114.88 148.692C114.784 148.747 114.687 148.802 114.59 148.858V148.863L114.578 148.865L114.574 148.867L114.571 148.871H114.569C114.302 149.024 114.036 149.176 113.767 149.325L113.766 149.327C113.55 149.447 113.334 149.565 113.117 149.684C112.602 149.964 112.084 150.239 111.562 150.51C111.2 150.698 110.835 150.882 110.469 151.063C110.248 151.173 110.024 151.282 109.801 151.391C109.616 151.48 109.429 151.57 109.244 151.658C109.193 151.683 109.143 151.707 109.092 151.73C109.008 151.77 108.922 151.81 108.838 151.849C108.767 151.881 108.699 151.914 108.628 151.946C108.46 152.026 108.29 152.102 108.122 152.179C107.934 152.265 107.747 152.348 107.558 152.432C106.848 152.749 106.131 153.054 105.412 153.348C102.842 154.4 100.216 155.308 97.546 156.068C97.422 156.104 97.2961 156.141 97.1702 156.175C96.0275 156.495 94.8765 156.788 93.7172 157.054C91.6931 157.52 89.6506 157.902 87.5896 158.201C87.5858 158.201 87.58 158.203 87.5762 158.203C87.3301 158.239 87.0821 158.273 86.836 158.308C86.815 158.311 86.7921 158.315 86.7693 158.317C86.7674 158.319 86.7655 158.319 86.7616 158.317H86.7597C86.4869 158.353 86.2141 158.39 85.9394 158.424C85.9203 158.428 85.9013 158.43 85.8822 158.431C85.6266 158.462 85.369 158.493 85.1115 158.521C84.8348 158.552 84.5582 158.58 84.2797 158.609H84.2778C83.8543 158.651 83.4308 158.691 83.0072 158.725C82.9996 158.725 82.992 158.727 82.9843 158.727C82.8165 158.742 82.6486 158.754 82.4807 158.767H82.4788C80.5043 158.924 78.5114 159.001 76.5 159C74.3156 159 72.1535 158.909 70.0137 158.727C70.0061 158.727 69.9984 158.725 69.9908 158.725C69.5348 158.687 69.0795 158.645 68.6249 158.599C68.5047 158.588 68.3864 158.575 68.2662 158.563C68.2433 158.561 68.2204 158.559 68.1975 158.556C68.1613 158.552 68.125 158.548 68.0869 158.544C68.0678 158.542 68.0468 158.54 68.0278 158.536C67.8694 158.519 67.711 158.502 67.5508 158.483C67.3734 158.462 67.1941 158.441 67.0167 158.418C66.8392 158.397 66.6599 158.374 66.4825 158.35C66.4443 158.346 66.4043 158.342 66.3661 158.334C66.2364 158.319 66.1067 158.302 65.9789 158.283C65.9159 158.275 65.8549 158.266 65.7938 158.256C65.6698 158.239 65.5477 158.222 65.4237 158.203C65.4199 158.203 65.4142 158.201 65.4104 158.201C61.5147 157.638 57.669 156.771 53.9087 155.608H53.9068C53.7026 155.545 53.4985 155.481 53.2944 155.416C53.2333 155.399 53.1723 155.38 53.1112 155.359C52.5809 155.189 52.0537 155.013 51.5297 154.832C50.8067 154.584 50.0888 154.325 49.3759 154.054C49.1813 153.979 48.9886 153.905 48.794 153.831C48.4068 153.678 48.0214 153.525 47.6379 153.369C46.9836 153.102 46.3337 152.827 45.6882 152.543H45.6863V152.541C45.177 152.316 44.6695 152.087 44.1659 151.849C44.0743 151.807 43.9827 151.765 43.8912 151.721C43.8736 151.716 43.8569 151.708 43.8416 151.698C43.8397 151.698 43.8397 151.696 43.8378 151.696C43.7061 151.635 43.5745 151.572 43.4428 151.509L43.439 151.507C42.7656 151.185 42.0979 150.852 41.4359 150.51C40.6156 150.086 39.8023 149.647 38.9959 149.193C38.3282 148.818 37.6669 148.432 37.0119 148.036C36.2354 147.566 35.4673 147.083 34.7074 146.586H118.293Z" fill="#2F2E41"/>
<path d="M49.1449 10.3222C49.3556 10.3222 49.5264 10.1233 49.5264 9.87791C49.5264 9.63252 49.3556 9.43359 49.1449 9.43359C48.9342 9.43359 48.7634 9.63252 48.7634 9.87791C48.7634 10.1233 48.9342 10.3222 49.1449 10.3222Z" fill="white"/>
<path d="M72.3272 10.8733C72.5379 10.8733 72.7087 10.6743 72.7087 10.4289C72.7087 10.1835 72.5379 9.98462 72.3272 9.98462C72.1165 9.98462 71.9456 10.1835 71.9456 10.4289C71.9456 10.6743 72.1165 10.8733 72.3272 10.8733Z" fill="white"/>
<path d="M86.6352 11.3176C86.8459 11.3176 87.0167 11.1187 87.0167 10.8733C87.0167 10.6279 86.8459 10.429 86.6352 10.429C86.4245 10.429 86.2536 10.6279 86.2536 10.8733C86.2536 11.1187 86.4245 11.3176 86.6352 11.3176Z" fill="white"/>
<path d="M106.758 67.5272C106.969 67.5272 107.14 67.3564 107.14 67.1457C107.14 66.935 106.969 66.7642 106.758 66.7642C106.548 66.7642 106.377 66.935 106.377 67.1457C106.377 67.3564 106.548 67.5272 106.758 67.5272Z" fill="white"/>
<path d="M83.5828 46.0637C83.7935 46.0637 83.9644 45.8929 83.9644 45.6822C83.9644 45.4715 83.7935 45.3007 83.5828 45.3007C83.3721 45.3007 83.2012 45.4715 83.2012 45.6822C83.2012 45.8929 83.3721 46.0637 83.5828 46.0637Z" fill="white"/>
<path d="M64.4067 65.6196C64.6174 65.6196 64.7883 65.4488 64.7883 65.2381C64.7883 65.0274 64.6174 64.8566 64.4067 64.8566C64.196 64.8566 64.0252 65.0274 64.0252 65.2381C64.0252 65.4488 64.196 65.6196 64.4067 65.6196Z" fill="white"/>
<path d="M61.1636 45.5906C61.3743 45.5906 61.5451 45.4198 61.5451 45.2091C61.5451 44.9984 61.3743 44.8276 61.1636 44.8276C60.9529 44.8276 60.782 44.9984 60.782 45.2091C60.782 45.4198 60.9529 45.5906 61.1636 45.5906Z" fill="white"/>
<path d="M35.6 41.5848C35.8107 41.5848 35.9816 41.414 35.9816 41.2033C35.9816 40.9926 35.8107 40.8218 35.6 40.8218C35.3893 40.8218 35.2185 40.9926 35.2185 41.2033C35.2185 41.414 35.3893 41.5848 35.6 41.5848Z" fill="white"/>
<path d="M122.808 119.478L122.427 119.489L122.999 140.457L123.38 140.447L122.808 119.478Z" fill="#B3B3B3"/>
<path d="M128.722 37.2664L128.341 37.2721L128.913 75.7894L129.294 75.7837L128.722 37.2664Z" fill="#B3B3B3"/>
<path d="M115.616 77.0648H110.229C110.108 77.0644 109.987 77.0907 109.877 77.1418C109.767 77.1929 109.669 77.2675 109.591 77.3605C109.516 77.346 109.439 77.3386 109.363 77.3386C109.024 77.3386 108.699 77.4732 108.459 77.7127C108.22 77.9523 108.085 78.2773 108.085 78.6161C108.085 78.9549 108.22 79.2798 108.459 79.5194C108.699 79.759 109.024 79.8936 109.363 79.8936C109.556 79.8936 109.746 79.8494 109.919 79.7644L110.009 80.8683L110.366 85.2315C110.383 85.286 110.406 85.3385 110.434 85.3881C110.506 85.5206 110.613 85.6312 110.742 85.7083C110.872 85.7854 111.02 85.8261 111.171 85.8262H114.674C114.825 85.826 114.973 85.7853 115.103 85.7082C115.233 85.6311 115.34 85.5206 115.412 85.3881C115.44 85.3383 115.462 85.2858 115.479 85.2315L116.421 78.1545C116.46 78.0285 116.468 77.8952 116.446 77.7653C116.424 77.6354 116.372 77.5125 116.293 77.4065C116.215 77.3005 116.113 77.2144 115.995 77.155C115.878 77.0957 115.748 77.0648 115.616 77.0648V77.0648ZM109.363 79.5289C109.121 79.5286 108.889 79.4322 108.718 79.2611C108.547 79.0899 108.451 78.8579 108.451 78.6161C108.451 78.3742 108.547 78.1422 108.718 77.9711C108.889 77.7999 109.121 77.7036 109.363 77.7032C109.379 77.7032 109.395 77.7076 109.411 77.7087C109.375 77.8557 109.379 78.0098 109.424 78.1545L109.81 79.4073C109.674 79.4862 109.52 79.5282 109.363 79.5289V79.5289Z" fill="#F2F2F2"/>
<path d="M113.767 149.326L112.869 147.689L113.311 147.481L113.664 147.313L115.204 146.587L116.129 146.15L116.511 145.969L116.814 145.825L117.318 146.587L117.571 146.97L117.609 147.027V147.029C117.601 147.032 117.594 147.036 117.587 147.041C117.581 147.044 117.577 147.046 117.571 147.05C117.396 147.163 117.222 147.273 117.045 147.384C116.991 147.42 116.938 147.453 116.885 147.485C116.791 147.544 116.696 147.603 116.6 147.662C116.507 147.72 116.411 147.779 116.316 147.836C115.936 148.069 115.553 148.298 115.169 148.523C115.074 148.58 114.977 148.635 114.88 148.692C114.784 148.748 114.687 148.803 114.59 148.858V148.864L114.578 148.866L114.574 148.868L114.57 148.872H114.569C114.301 149.024 114.036 149.177 113.767 149.326Z" fill="#2F2E41"/>
<g opacity="0.49">
<path opacity="0.49" d="M112.86 74.1971C112.903 74.1395 112.942 74.0789 112.977 74.0157C112.91 74.0438 112.84 74.0658 112.768 74.0815L112.86 74.1971Z" fill="white"/>
<path opacity="0.49" d="M113.352 70.3056C113.009 69.6482 112.623 68.9948 112.486 68.2661C112.348 67.536 112.469 66.7858 112.511 66.0441C112.553 65.3023 112.5 64.5094 112.071 63.9028C111.486 65.7558 110.906 67.7975 111.655 69.5906C111.979 70.3685 112.533 71.0308 112.89 71.7945C113.216 72.4918 113.348 73.361 112.977 74.0158C113.582 73.7717 113.96 73.0795 113.983 72.4126C114.009 71.6713 113.696 70.963 113.352 70.3056Z" fill="white"/>
</g>
<g opacity="0.49">
<path opacity="0.49" d="M112.212 76.6771C112.229 76.6547 112.244 76.6311 112.258 76.6065C112.232 76.6174 112.204 76.626 112.177 76.6321L112.212 76.6771Z" fill="white"/>
<path opacity="0.49" d="M112.404 75.165C112.253 74.9188 112.14 74.6519 112.067 74.3727C112.035 74.0856 112.038 73.7957 112.077 73.5094C112.114 73.2208 112.054 72.9279 111.906 72.6775C111.678 73.3974 111.453 74.1906 111.744 74.8873C111.87 75.1895 112.085 75.4468 112.224 75.7435C112.296 75.875 112.336 76.0213 112.342 76.171C112.348 76.3207 112.319 76.4697 112.258 76.6065C112.375 76.5492 112.473 76.4606 112.542 76.3505C112.611 76.2405 112.648 76.1135 112.649 75.9836C112.639 75.6942 112.554 75.4123 112.404 75.165Z" fill="white"/>
</g>
<path d="M37.4373 18.0986H25.4186C25.0644 18.0986 24.7248 17.9579 24.4743 17.7075C24.2239 17.4571 24.0832 17.1174 24.0832 16.7633C24.0832 16.4092 24.2239 16.0695 24.4743 15.8191C24.7248 15.5687 25.0644 15.428 25.4186 15.428H37.4373C37.7915 15.428 38.1312 15.5687 38.3816 15.8191C38.632 16.0695 38.7727 16.4092 38.7727 16.7633C38.7727 17.1174 38.632 17.4571 38.3816 17.7075C38.1312 17.9579 37.7915 18.0986 37.4373 18.0986V18.0986Z" fill="#2F2E41"/>
<path d="M140.457 2.74317H14.3566C14.0024 2.74317 13.6627 2.60249 13.4123 2.35208C13.1619 2.10167 13.0212 1.76204 13.0212 1.4079C13.0212 1.05377 13.1619 0.714134 13.4123 0.463723C13.6627 0.213311 14.0024 0.0726318 14.3566 0.0726318H140.457C140.812 0.0726318 141.151 0.213311 141.402 0.463723C141.652 0.714134 141.793 1.05377 141.793 1.4079C141.793 1.76204 141.652 2.10167 141.402 2.35208C141.151 2.60249 140.812 2.74317 140.457 2.74317V2.74317Z" fill="#2F2E41"/>
<path d="M33.2403 31.4513H21.2216C20.8675 31.4513 20.5278 31.3106 20.2773 31.0602C20.0269 30.8098 19.8862 30.4702 19.8862 30.116C19.8862 29.7619 20.0269 29.4223 20.2773 29.1719C20.5278 28.9214 20.8675 28.7808 21.2216 28.7808H33.2403C33.5945 28.7808 33.9342 28.9214 34.1846 29.1719C34.435 29.4223 34.5757 29.7619 34.5757 30.116C34.5757 30.4702 34.435 30.8098 34.1846 31.0602C33.9342 31.3106 33.5945 31.4513 33.2403 31.4513V31.4513Z" fill="#2F2E41"/>
<path d="M129.008 18.0986H116.99C116.635 18.0986 116.296 17.9579 116.045 17.7075C115.795 17.4571 115.654 17.1174 115.654 16.7633C115.654 16.4092 115.795 16.0695 116.045 15.8191C116.296 15.5687 116.635 15.428 116.99 15.428H129.008C129.362 15.428 129.702 15.5687 129.953 15.8191C130.203 16.0695 130.344 16.4092 130.344 16.7633C130.344 17.1174 130.203 17.4571 129.953 17.7075C129.702 17.9579 129.362 18.0986 129.008 18.0986V18.0986Z" fill="#2F2E41"/>
<path d="M133.778 30.879H121.759C121.405 30.879 121.065 30.7384 120.815 30.4879C120.564 30.2375 120.424 29.8979 120.424 29.5438C120.424 29.1896 120.564 28.85 120.815 28.5996C121.065 28.3492 121.405 28.2085 121.759 28.2085H133.778C134.132 28.2085 134.471 28.3492 134.722 28.5996C134.972 28.85 135.113 29.1896 135.113 29.5438C135.113 29.8979 134.972 30.2375 134.722 30.4879C134.471 30.7384 134.132 30.879 133.778 30.879V30.879Z" fill="#2F2E41"/>
<path d="M26.0863 35.5496L25.7048 35.5553L26.2771 74.0726L26.6586 74.067L26.0863 35.5496Z" fill="#B3B3B3"/>
<path d="M29.9018 79.8043L29.5202 79.8099L30.0926 118.327L30.4741 118.322L29.9018 79.8043Z" fill="#B3B3B3"/>
<path d="M25.7047 112.421L25.3233 112.431L25.8956 133.399L26.277 133.389L25.7047 112.421Z" fill="#B3B3B3"/>
<path d="M101.697 125.846V125.118C101.697 124.84 101.59 124.572 101.399 124.37C101.208 124.168 100.947 124.046 100.67 124.03V121.187H100.428V124.027H99.3401V125.839H94.2035V146.686H105.564V129.933C105.564 128.886 105.163 127.88 104.444 127.119C103.725 126.359 102.742 125.904 101.697 125.846V125.846Z" fill="#2F2E41"/>
<path d="M97.5876 128.8H96.0768V130.009H97.5876V128.8Z" fill="white"/>
<path d="M100.065 128.8H98.5545V130.009H100.065V128.8Z" fill="white"/>
<path d="M102.543 128.8H101.032V130.009H102.543V128.8Z" fill="white"/>
<path d="M97.5876 131.882H96.0768V133.09H97.5876V131.882Z" fill="white"/>
<path d="M100.065 131.882H98.5545V133.09H100.065V131.882Z" fill="white"/>
<path d="M102.543 131.882H101.032V133.09H102.543V131.882Z" fill="white"/>
<path d="M97.5876 134.963H96.0768V136.172H97.5876V134.963Z" fill="white"/>
<path d="M100.065 134.963H98.5545V136.172H100.065V134.963Z" fill="white"/>
<path d="M102.543 134.963H101.032V136.172H102.543V134.963Z" fill="white"/>
<path d="M97.5876 138.045H96.0768V139.253H97.5876V138.045Z" fill="white"/>
<path d="M100.065 138.045H98.5545V139.253H100.065V138.045Z" fill="white"/>
<path d="M102.543 138.045H101.032V139.253H102.543V138.045Z" fill="white"/>
<path d="M97.5876 141.127H96.0768V142.335H97.5876V141.127Z" fill="white"/>
<path d="M100.065 141.127H98.5545V142.335H100.065V141.127Z" fill="white"/>
<path d="M102.543 141.127H101.032V142.335H102.543V141.127Z" fill="white"/>
<path d="M97.5876 144.208H96.0768V145.417H97.5876V144.208Z" fill="white"/>
<path d="M100.065 144.208H98.5545V145.417H100.065V144.208Z" fill="white"/>
<path d="M102.543 144.208H101.032V145.417H102.543V144.208Z" fill="white"/>
<path d="M90.4235 115.688H90.0756V113.547C90.0756 113.257 89.9607 112.98 89.756 112.775C89.5513 112.57 89.2738 112.455 88.9843 112.455H87.4771V109.374H87.2354V112.455H85.1808V115.688H83.1564V146.686H94.5173V119.781C94.5173 119.244 94.4114 118.712 94.2057 118.215C93.9999 117.718 93.6984 117.267 93.3182 116.887C92.9381 116.507 92.4868 116.205 91.9901 116C91.4934 115.794 90.9611 115.688 90.4235 115.688V115.688Z" fill="#2F2E41"/>
<path d="M91.2843 118.135H86.3894V118.498H91.2843V118.135Z" fill="white"/>
<path d="M91.2843 120.371H86.3894V120.734H91.2843V120.371Z" fill="white"/>
<path d="M91.2843 122.607H86.3894V122.969H91.2843V122.607Z" fill="white"/>
<path d="M91.2843 124.842H86.3894V125.205H91.2843V124.842Z" fill="white"/>
<path d="M91.2843 127.078H86.3894V127.441H91.2843V127.078Z" fill="white"/>
<path d="M91.2843 129.314H86.3894V129.676H91.2843V129.314Z" fill="white"/>
<path d="M91.2843 131.549H86.3894V131.912H91.2843V131.549Z" fill="white"/>
<path d="M91.2843 133.785H86.3894V134.148H91.2843V133.785Z" fill="white"/>
<path d="M91.2843 136.021H86.3894V136.383H91.2843V136.021Z" fill="white"/>
<path d="M91.2843 138.256H86.3894V138.619H91.2843V138.256Z" fill="white"/>
<path d="M91.2843 140.492H86.3894V140.855H91.2843V140.492Z" fill="white"/>
<path d="M91.2843 142.728H86.3894V143.09H91.2843V142.728Z" fill="white"/>
<path d="M88.3836 113.12H86.8728V114.329H88.3836V113.12Z" fill="white"/>
<path d="M136.757 127.86V129.638C136.483 129.989 136.204 130.34 135.922 130.685C135.861 130.762 135.8 130.836 135.741 130.911C135.647 131.023 135.555 131.136 135.464 131.246C135.433 131.284 135.403 131.321 135.37 131.359C135.214 131.546 135.058 131.733 134.897 131.92C134.897 131.92 134.899 131.922 134.897 131.922C134.743 132.105 134.586 132.288 134.428 132.471C134.342 132.572 134.254 132.671 134.165 132.772C134.033 132.927 133.898 133.079 133.76 133.232C133.758 133.234 133.758 133.236 133.757 133.238L133.751 133.243V127.86L136.757 127.86Z" fill="#2F2E41"/>
<path d="M140.68 124.152C140.18 124.923 139.667 125.682 139.14 126.43C139.14 126.432 139.138 126.432 139.136 126.434C138.822 126.884 138.499 127.33 138.175 127.773C137.967 128.055 137.757 128.336 137.545 128.616C137.333 128.896 137.12 129.174 136.904 129.449C136.857 129.512 136.807 129.575 136.757 129.638C136.483 129.989 136.204 130.34 135.922 130.685C135.861 130.762 135.8 130.836 135.741 130.91C135.647 131.023 135.555 131.136 135.464 131.246C135.431 131.284 135.401 131.321 135.37 131.359C135.214 131.546 135.058 131.733 134.897 131.92C134.897 131.92 134.899 131.921 134.897 131.921C134.743 132.105 134.586 132.288 134.428 132.471C134.342 132.572 134.254 132.671 134.165 132.772H127.936C127.271 132.772 126.634 132.508 126.164 132.038C125.694 131.568 125.43 130.93 125.429 130.266V126.659C125.43 125.994 125.694 125.357 126.164 124.887C126.634 124.417 127.271 124.153 127.936 124.152H140.68Z" fill="#2F2E41"/>
<path d="M143.974 93.2772C143.591 93.145 143.189 93.0779 142.783 93.0788H141.759C141.386 93.0791 141.015 93.135 140.658 93.2448C139.906 93.4811 139.249 93.9511 138.782 94.5863C138.315 95.2216 138.063 95.9891 138.062 96.7775V126.869C138.062 126.981 138.068 127.092 138.077 127.201C138.094 127.394 138.126 127.585 138.174 127.773C138.499 127.33 138.821 126.884 139.136 126.434C139.138 126.432 139.14 126.432 139.14 126.43C139.666 125.682 140.179 124.923 140.679 124.152C140.948 123.738 141.215 123.321 141.477 122.901C143.365 119.871 145.038 116.712 146.483 113.447V96.7775C146.482 96.0053 146.239 95.2527 145.79 94.6251C145.34 93.9974 144.705 93.5261 143.974 93.2772V93.2772Z" fill="#2F2E41"/>
<path d="M99.4724 149.235L96.8752 147.993L100.443 137.138L104.276 138.971L99.4724 149.235Z" fill="#FFB6B6"/>
<path d="M116.885 147.485C116.696 147.603 116.507 147.72 116.316 147.836C115.936 148.069 115.553 148.298 115.169 148.523C114.977 148.635 114.782 148.748 114.59 148.858V148.864L114.578 148.866L114.574 148.868L114.28 148.94L113.859 147.826L113.664 147.313L113.39 146.587L112.886 145.257L110.234 138.256L114.357 137.24L114.511 137.871H114.513L114.59 138.184L116.03 144.025L116.324 145.219L116.333 145.255L116.511 145.968L116.663 146.587L116.833 147.277L116.885 147.485Z" fill="#FFB6B6"/>
<path d="M106.37 102.055C106.74 102.657 107.331 103.09 108.016 103.262C108.702 103.434 109.427 103.331 110.038 102.975C110.16 102.901 110.277 102.817 110.386 102.723L118.597 107.435L118.24 102.598L110.497 98.8656C110.076 98.4424 109.526 98.171 108.934 98.0939C108.342 98.0168 107.741 98.1383 107.225 98.4394C106.635 98.7938 106.21 99.3681 106.043 100.036C105.876 100.704 105.982 101.411 106.336 102.001C106.347 102.019 106.358 102.037 106.37 102.055Z" fill="#FFB6B6"/>
<path d="M115.066 105.661L116.518 106.545L123.036 110.52C123.464 110.787 123.941 110.968 124.438 111.052C124.936 111.135 125.446 111.12 125.937 111.007C126.429 110.894 126.894 110.685 127.305 110.392C127.716 110.099 128.066 109.728 128.333 109.3L128.335 109.297C128.818 108.502 128.989 107.556 128.815 106.642L125.918 92.1692C125.811 91.601 125.582 91.0627 125.248 90.5909C124.914 90.1192 124.481 89.7252 123.981 89.4358C123.48 89.1464 122.923 88.9686 122.347 88.9144C121.772 88.8601 121.191 88.9309 120.645 89.1217C119.728 89.444 118.968 90.1037 118.519 90.9666C118.071 91.8295 117.969 92.8308 118.233 93.7666L121.262 104.038L116.618 101.873L115.066 105.661Z" fill="#03A9F4"/>
<path d="M141.795 119.931C141.793 119.925 141.79 119.904 141.784 119.872L141.778 119.851C141.765 119.782 141.749 119.706 141.732 119.622C141.343 117.689 140.843 115.781 140.235 113.905C139.874 112.757 139.397 111.648 138.81 110.598C138.791 110.563 138.77 110.529 138.749 110.495L138.678 110.38L138.085 110.598L138.062 110.605L129.042 113.911L126.434 114.867L126.352 114.897L125.908 116.709L119.671 115.902L114.589 115.244L113.13 115.055C112.497 114.973 111.854 115.017 111.239 115.186C110.623 115.354 110.048 115.643 109.545 116.036C109.021 116.442 108.582 116.949 108.256 117.527C107.929 118.105 107.721 118.742 107.643 119.401C107.624 119.546 107.613 119.693 107.607 119.838L107.166 136.275V136.296L107.37 136.704L111.634 145.257H114.589L116.333 145.255H117.75L114.803 137.799L114.87 137.698C115.147 137.273 115.322 136.789 115.38 136.285C115.439 135.781 115.38 135.27 115.207 134.793L115.539 133.831C116.228 131.845 115.902 130.892 115.49 129.686C115.119 128.706 114.902 127.675 114.845 126.628L114.776 125.268C116.506 125.572 118.118 125.909 119.671 126.249C120.19 126.361 120.704 126.475 121.213 126.59C122.661 126.913 124.059 127.224 125.429 127.483C128.203 128.011 130.86 128.334 133.59 128.133C133.644 128.13 133.697 128.126 133.75 128.12C134.414 128.067 135.082 127.981 135.757 127.861C136.137 127.792 136.518 127.714 136.904 127.622C137.011 127.596 137.119 127.569 137.226 127.542C137.523 127.464 137.809 127.349 138.077 127.201C138.459 126.988 138.814 126.73 139.136 126.434C139.138 126.432 139.14 126.432 139.14 126.43C139.666 125.682 140.179 124.923 140.679 124.152C140.948 123.738 141.215 123.321 141.477 122.901C141.858 121.854 142.003 120.797 141.795 119.931Z" fill="#2F2E41"/>
<path d="M141.858 116.843C141.83 116.721 141.793 116.597 141.755 116.477C141.452 115.566 141.099 114.674 140.698 113.802C140.248 112.81 139.708 111.748 139.065 110.598C138.754 110.041 138.42 109.461 138.062 108.86C137.882 108.558 137.696 108.251 137.503 107.938C137.495 107.924 137.487 107.91 137.478 107.897L137.423 107.805L128.498 108.999L125.175 109.444L124.977 111.099L124.929 111.509C124.927 111.509 124.927 111.509 124.929 111.511L124.795 112.629V112.631L124.618 114.107L124.603 114.106L119.671 113.466L114.589 112.808L111.859 112.455C111.226 112.373 110.584 112.417 109.968 112.586C109.353 112.754 108.777 113.043 108.275 113.436C107.75 113.843 107.312 114.349 106.985 114.927C106.659 115.505 106.45 116.142 106.372 116.801C106.355 116.934 106.344 117.072 106.338 117.207L103.763 123.309C102.222 126.959 101.24 130.82 100.852 134.762L98.9629 140.799L99.2319 140.824L103.234 141.196L104.291 141.295L106.619 137.898C106.884 137.511 107.136 137.112 107.37 136.704C107.757 136.037 108.1 135.347 108.399 134.636L113.433 122.657C113.822 122.724 114.208 122.787 114.589 122.848C116.354 123.134 118.048 123.367 119.671 123.548C124.95 124.137 129.521 124.183 133.59 123.683C134.733 123.544 135.837 123.361 136.904 123.134C137.295 123.052 137.681 122.963 138.062 122.869C138.151 122.848 138.239 122.827 138.327 122.804C139.115 122.601 139.84 122.203 140.435 121.647C141.03 121.091 141.476 120.395 141.732 119.622C142.038 118.727 142.082 117.762 141.858 116.843V116.843Z" fill="#2F2E41"/>
<path d="M122.881 80.8154C126.29 80.8154 129.054 77.9903 129.054 74.5054C129.054 71.0205 126.29 68.1954 122.881 68.1954C119.472 68.1954 116.708 71.0205 116.708 74.5054C116.708 77.9903 119.472 80.8154 122.881 80.8154Z" fill="#FFB6B6"/>
<path d="M137.539 108.15C137.53 108.08 137.518 108.009 137.503 107.938C137.356 107.164 136.974 106.405 136.606 105.669C136.255 104.967 135.921 104.303 135.784 103.643C135.649 102.992 135.729 102.34 135.807 101.71C135.891 101.028 135.979 100.322 135.782 99.6369C134.785 96.1396 133.417 92.7593 131.7 89.5537C131.266 88.1442 130.436 86.8895 129.307 85.9402C128.179 84.9908 126.8 84.387 125.337 84.2012C125.508 83.8823 125.579 83.5195 125.541 83.1597C125.517 82.9272 125.448 82.7018 125.336 82.4965C125.224 82.2912 125.073 82.1101 124.891 81.9637C124.716 81.8227 124.515 81.7177 124.299 81.6549C124.083 81.592 123.857 81.5725 123.634 81.5974L120.764 81.9198C120.304 81.9775 119.886 82.2145 119.6 82.5792C119.313 82.944 119.183 83.4069 119.236 83.8674C119.252 84.0091 119.284 84.1486 119.332 84.2832C116.669 87.6748 115.301 90.765 115.175 93.6873V93.6892C115.16 94.0267 115.161 94.3648 115.181 94.7021C115.241 95.7931 115.478 96.867 115.883 97.882C116.36 99.0545 117 100.154 117.783 101.15C117.943 101.352 118.109 101.55 118.281 101.745C118.441 101.935 118.62 102.136 118.819 102.346L119.32 103.132L119.788 103.866L122.287 109.632L123.559 109.59L123.737 110.859L123.779 111.155L124.603 114.106L124.664 114.327L125.791 113.791L132.518 110.598L137.547 108.209L137.539 108.15Z" fill="#03A9F4"/>
<path opacity="0.2" d="M115.958 97.8514C116.532 99.2561 117.338 100.554 118.343 101.691C118.515 101.896 118.697 102.098 118.887 102.301L119.864 103.833C123.464 101.135 126.38 90.5119 126.38 90.5119L122.319 89.7219L115.958 97.8514Z" fill="black"/>
<path d="M113.499 81.4049C113.855 82.0158 113.958 82.7413 113.787 83.4271C113.616 84.1129 113.184 84.7048 112.583 85.077C112.459 85.1507 112.33 85.2141 112.196 85.2665L112.484 94.7285L108.386 92.1491L108.741 83.5593C108.567 82.9877 108.587 82.3744 108.797 81.8153C109.008 81.2561 109.398 80.7824 109.907 80.4682C110.494 80.1127 111.199 80.0053 111.866 80.1694C112.533 80.3336 113.108 80.7559 113.463 81.3436C113.475 81.3639 113.487 81.3843 113.499 81.4049Z" fill="#FFB6B6"/>
<path d="M112.844 91.1568L108.338 91.7976L108.531 101.129C108.543 101.795 108.724 102.446 109.058 103.022C109.392 103.598 109.868 104.079 110.44 104.419V104.419C111.139 104.83 111.953 105.003 112.76 104.912C113.566 104.82 114.32 104.469 114.909 103.912L125.549 93.6793C126.297 92.9692 126.745 91.9994 126.801 90.9691C126.856 89.9389 126.514 88.9267 125.846 88.1406V88.1406C125.191 87.3656 124.255 86.8824 123.244 86.7973C122.233 86.7123 121.23 87.0323 120.455 87.6871C120.424 87.7127 120.394 87.7388 120.365 87.7653C120.26 87.8593 120.16 87.9589 120.065 88.0637L113.04 96.1447L112.844 91.1568Z" fill="#03A9F4"/>
<path d="M100.302 147.462L97.492 146.116L97.0514 145.904L96.3474 147.632L91.4331 148.714C91.1901 148.767 90.9705 148.897 90.8064 149.083C90.6423 149.27 90.5423 149.505 90.521 149.753C90.4997 150.001 90.5582 150.249 90.688 150.461C90.8177 150.673 91.012 150.838 91.2423 150.932L96.0441 152.891L97.5684 151.52L97.1944 153.36L99.003 154.099L100.985 147.79L100.302 147.462Z" fill="#2F2E41"/>
<path d="M139.4 71.7688C138.35 70.5453 137.851 68.922 137.013 67.5326C136.174 66.1432 134.714 64.8997 133.172 65.223C132.109 65.4459 131.287 66.3839 130.871 67.4296C130.456 68.4753 130.378 69.6285 130.305 70.7583C130.33 68.4366 128.801 66.1859 126.693 65.4451C124.586 64.7042 122.064 65.5306 120.74 67.3958C120.162 66.8603 119.408 66.5554 118.621 66.5388C117.833 66.5223 117.067 66.7953 116.467 67.3061C115.282 68.3645 115.02 70.3791 115.891 71.7291C116.762 73.0792 118.649 73.5821 120.033 72.8334L120.522 73.2835C120.247 74.2468 120.781 75.3847 121.679 75.7474C122.407 76.0415 123.435 75.9925 123.708 76.7566C123.898 77.2904 123.542 77.8603 123.163 78.2705C122.785 78.6808 122.335 79.1044 122.29 79.6721C122.221 80.5287 123.107 81.1287 123.911 81.3094C125.852 81.7452 128.005 80.8467 129.123 79.1344C129.145 79.1014 129.168 79.0684 129.194 79.0353C129.821 78.2329 130.278 77.3111 130.537 76.326C130.797 75.341 130.852 74.3135 130.701 73.3063C130.638 72.9105 130.701 72.6162 130.974 72.5225C132.154 72.1174 135.458 72.9676 136.458 73.736C137.458 74.5044 138.259 75.5214 139.222 76.3394C140.186 77.1574 141.413 77.7884 142.637 77.5656C143.616 77.3872 144.45 76.6761 145.01 75.8183C145.571 74.9606 145.893 73.9607 146.182 72.9671C144.016 74.2183 141.051 73.6946 139.4 71.7688Z" fill="#2F2E41"/>
<path d="M119.914 145.495V145.537L119.861 145.532C119.798 145.577 119.735 145.619 119.672 145.663C119.216 145.976 118.756 146.284 118.292 146.587C118.065 146.735 117.838 146.882 117.609 147.027V147.029C117.608 147.029 117.606 147.031 117.604 147.031H117.602L117.598 147.035L117.587 147.04C117.581 147.044 117.577 147.046 117.571 147.05V111.787C117.571 110.765 117.228 109.935 116.806 109.933H85.0445C84.621 109.935 84.2795 110.765 84.2776 111.787V158.61C83.8541 158.652 83.4306 158.692 83.0071 158.726C82.9995 158.726 82.9918 158.728 82.9842 158.728C82.8163 158.743 82.6484 158.755 82.4806 158.768H82.4787C82.3775 158.581 82.2783 158.392 82.1791 158.201V109.382C82.1791 109.1 82.1906 108.816 82.2097 108.535C82.2369 108.15 82.2847 107.767 82.3527 107.387C82.6751 105.615 83.4039 104.415 84.2319 104.411H117.617C117.738 104.412 117.857 104.437 117.968 104.485C118.131 104.557 118.278 104.661 118.401 104.789C118.569 104.963 118.712 105.158 118.827 105.371C119.235 106.09 119.527 107.162 119.63 108.409C119.63 108.421 119.632 108.432 119.632 108.444C119.658 108.753 119.672 109.067 119.67 109.382L119.697 113.47L119.714 115.908L119.765 123.557L119.784 126.273L119.914 145.495Z" fill="#2F2E41"/>
<path d="M94.9311 93.0704L92.7217 102.79L91.31 104.336H90.2915L94.4892 86.6639L94.6968 89.6662V89.6683L94.9311 93.0704Z" fill="#2F2E41"/>
<path d="M105.564 103.004L92.6025 102.922L91.4522 102.914L90.6318 102.908L89.6761 102.903H89.6684C89.5298 102.903 89.3968 102.958 89.2983 103.055L87.6844 104.669C87.6487 104.704 87.6196 104.746 87.5985 104.791C87.5885 104.804 87.5801 104.818 87.5737 104.833C87.5388 104.914 87.5244 105.003 87.5317 105.091C87.539 105.179 87.5679 105.264 87.6158 105.338C87.6637 105.412 87.7291 105.473 87.8062 105.516C87.8834 105.559 87.97 105.583 88.0583 105.585H104.848C104.949 105.584 105.048 105.555 105.133 105.501C105.218 105.447 105.286 105.37 105.329 105.279L105.461 104.993L105.731 104.411L106.039 103.755C106.071 103.685 106.088 103.609 106.088 103.532C106.087 103.393 106.032 103.259 105.934 103.161C105.836 103.062 105.703 103.005 105.564 103.004Z" fill="#2F2E41"/>
<path opacity="0.17" d="M105.461 104.993L105.328 105.28C105.285 105.371 105.217 105.448 105.132 105.501C105.047 105.555 104.949 105.584 104.849 105.585H88.058C87.9697 105.583 87.8832 105.56 87.806 105.517C87.7289 105.474 87.6635 105.413 87.6157 105.338C87.5679 105.264 87.539 105.179 87.5318 105.091C87.5246 105.003 87.5391 104.915 87.5742 104.834C87.5801 104.819 87.5883 104.804 87.5985 104.792L105.461 104.993Z" fill="black"/>
<path opacity="0.17" d="M94.6968 89.6662V89.6683L91.1023 104.336H90.2915L94.4892 86.6639L94.6968 89.6662Z" fill="black"/>
<path d="M99.1079 92.3539L94.02 53.6483C94.0013 53.5032 93.9259 53.3715 93.8101 53.282L90.3075 48.8985L89.9928 48.6563C89.8762 48.568 89.7296 48.529 89.5845 48.5476L89.058 48.6181C88.9128 48.6369 88.7809 48.7125 88.6915 48.8284C88.6021 48.9443 88.5623 49.091 88.581 49.2362V49.2362L93.854 89.34V89.3419L94.1764 91.795L94.5599 94.7078V94.7116L95.1551 99.2439C95.1646 99.3216 95.1908 99.3962 95.232 99.4628C95.2731 99.5293 95.3283 99.5861 95.3935 99.6292C95.4577 99.6734 95.5305 99.7034 95.6072 99.7172C95.6838 99.731 95.7625 99.7283 95.8381 99.7093L96.1719 99.6254C96.2998 99.5925 96.4119 99.5155 96.4886 99.408L96.6374 99.1962L96.7061 99.097L99.0106 92.745C99.0915 92.6317 99.1262 92.4919 99.1079 92.3539V92.3539Z" fill="#2F2E41"/>
<path opacity="0.17" d="M90.3067 48.8988L96.7067 99.0979L96.6371 99.1962L96.4888 99.4073C96.4123 99.515 96.3001 99.5921 96.1721 99.6249L95.8377 99.709C95.7621 99.7277 95.6833 99.7303 95.6065 99.7165C95.5298 99.7028 95.4568 99.673 95.3924 99.6291C95.3279 99.5852 95.2735 99.5282 95.2326 99.4618C95.1916 99.3954 95.1652 99.3212 95.1549 99.2439L88.5818 49.2368C88.5628 49.0916 88.6022 48.9448 88.6914 48.8286C88.7806 48.7124 88.9123 48.6364 89.0575 48.6173L89.5854 48.5479C89.657 48.5383 89.7298 48.5429 89.7996 48.5617C89.8694 48.5804 89.9348 48.6129 89.9919 48.6572L90.3067 48.8988Z" fill="black"/>
<path d="M90.4952 50.3343L93.8915 55.1815L97.9283 85.8929L95.7398 90.2342L90.4952 50.3343Z" fill="#03A9F4"/>
<path d="M141.763 112.253C141.763 112.588 141.661 112.916 141.471 113.193C141.281 113.469 141.012 113.681 140.699 113.802C140.55 113.859 140.394 113.894 140.235 113.905C140.193 113.909 140.149 113.911 140.107 113.911H136.904V129.449C136.857 129.512 136.807 129.575 136.757 129.638C136.483 129.989 136.204 130.34 135.922 130.685C135.861 130.762 135.8 130.836 135.741 130.91C135.647 131.023 135.555 131.136 135.464 131.246C135.431 131.284 135.401 131.321 135.37 131.359C135.214 131.546 135.058 131.733 134.897 131.92C134.897 131.92 134.899 131.921 134.897 131.921C134.743 132.105 134.586 132.288 134.428 132.471C134.139 132.31 133.906 132.064 133.76 131.767C133.758 131.765 133.758 131.763 133.757 131.759C133.754 131.755 133.752 131.751 133.751 131.746C133.644 131.523 133.589 131.278 133.591 131.031V113.911H126.41C126.198 113.912 125.988 113.871 125.792 113.79C125.545 113.692 125.325 113.535 125.151 113.333C124.978 113.131 124.856 112.89 124.796 112.631V112.629C124.707 112.252 124.754 111.856 124.929 111.511C124.928 111.509 124.928 111.509 124.929 111.509C125.004 111.358 125.103 111.22 125.221 111.101C125.221 111.099 125.221 111.099 125.223 111.097C125.378 110.939 125.562 110.813 125.766 110.727C125.97 110.642 126.189 110.597 126.41 110.597H140.107C140.546 110.597 140.967 110.772 141.278 111.082C141.588 111.393 141.763 111.814 141.763 112.253V112.253Z" fill="#2F2E41"/>
<path d="M141.653 80.3331C140.971 80.3331 140.296 80.4674 139.666 80.7283C139.036 80.9892 138.464 81.3716 137.982 81.8536C137.5 82.3357 137.117 82.9079 136.857 83.5378C136.596 84.1676 136.461 84.8427 136.461 85.5244V85.5244C136.462 86.7286 136.88 87.8954 137.646 88.8249C138.412 89.7543 139.477 90.3888 140.659 90.6195V99.1101H143.973V80.3331H141.653Z" fill="#2F2E41"/>
<path d="M120.673 67.1163C122.091 68.9997 123.946 73.5485 123.272 75.8078Z" fill="#FD6584"/>
</g>
<defs>
<clipPath id="clip0_42_205">
<rect width="153" height="159" fill="white"/>
</clipPath>
</defs>
</svg>
